<svg xmlns="http://www.w3.org/2000/svg">
    <symbol fill="none" viewBox="0 0 24 24" stroke="currentColor" id="arrow-left-on-rectangle">
        <path stroke-linecap="round" stroke-linejoin="round" d="M15.75 9V5.25A2.25 2.25 0 0013.5 3h-6a2.25 2.25 0 00-2.25 2.25v13.5A2.25 2.25 0 007.5 21h6a2.25 2.25 0 002.25-2.25V15M12 9l-3 3m0 0l3 3m-3-3h12.75" />
    </symbol>
    <symbol fill="none" viewBox="0 0 24 24" stroke="currentColor" id="bell-alert">
        <path stroke-linecap="round" stroke-linejoin="round" d="M14.857 17.082a23.848 23.848 0 005.454-1.31A8.967 8.967 0 0118 9.75v-.7V9A6 6 0 006 9v.75a8.967 8.967 0 01-2.312 6.022c1.733.64 3.56 1.085 5.455 1.31m5.714 0a24.255 24.255 0 01-5.714 0m5.714 0a3 3 0 11-5.714 0M3.124 7.5A8.969 8.969 0 015.292 3m13.416 0a8.969 8.969 0 012.168 4.5" />
    </symbol>
    <symbol fill="none" viewBox="0 0 24 24" stroke="currentColor" id="calendar">
        <path stroke-linecap="round" stroke-linejoin="round" d="M6.75 3v2.25M17.25 3v2.25M3 18.75V7.5a2.25 2.25 0 0 1 2.25-2.25h13.5A2.25 2.25 0 0 1 21 7.5v11.25m-18 0A2.25 2.25 0 0 0 5.25 21h13.5A2.25 2.25 0 0 0 21 18.75m-18 0v-7.5A2.25 2.25 0 0 1 5.25 9h13.5A2.25 2.25 0 0 1 21 11.25v7.5" />
    </symbol>
    <symbol fill="none" viewBox="0 0 24 24" stroke="currentColor" id="exclamation-circle">
        <path stroke-linecap="round" stroke-linejoin="round" d="M12 9v3.75m9-.75a9 9 0 11-18 0 9 9 0 0118 0zm-9 3.75h.008v.008H12v-.008z" />
    </symbol>
    <symbol fill="none" viewBox="0 0 24 24" stroke="currentColor" id="exclamation-triangle">
        <path stroke-linecap="round" stroke-linejoin="round" d="M12 9v3.75m-9.303 3.376c-.866 1.5.217 3.374 1.948 3.374h14.71c1.73 0 2.813-1.874 1.948-3.374L13.949 3.378c-.866-1.5-3.032-1.5-3.898 0L2.697 16.126zM12 15.75h.007v.008H12v-.008z" />
    </symbol>
    <symbol fill="none" viewBox="0 0 24 24" stroke="currentColor" id="home-modern">
        <path stroke-linecap="round" stroke-linejoin="round" d="M8.25 21v-4.875c0-.621.504-1.125 1.125-1.125h2.25c.621 0 1.125.504 1.125 1.125V21m0 0h4.5V3.545M12.75 21h7.5V10.75M2.25 21h1.5m18 0h-18M2.25 9l4.5-1.636M18.75 3l-1.5.545m0 6.205 3 1m1.5.5-1.5-.5M6.75 7.364V3h-3v18m3-13.636 10.5-3.819" />
    </symbol>
    <symbol fill="none" viewBox="0 0 24 24" stroke="currentColor" id="paint-brush">
        <path stroke-linecap="round" stroke-linejoin="round" d="M9.53 16.122a3 3 0 0 0-5.78 1.128 2.25 2.25 0 0 1-2.4 2.245 4.5 4.5 0 0 0 8.4-2.245c0-.399-.078-.78-.22-1.128Zm0 0a15.998 15.998 0 0 0 3.388-1.62m-5.043-.025a15.994 15.994 0 0 1 1.622-3.395m3.42 3.42a15.995 15.995 0 0 0 4.764-4.648l3.876-5.814a1.151 1.151 0 0 0-1.597-1.597L14.146 6.32a15.996 15.996 0 0 0-4.649 4.763m3.42 3.42a6.776 6.776 0 0 0-3.42-3.42" />
    </symbol>
    <symbol fill="none" viewBox="0 0 24 24" stroke="currentColor" id="shield-exclamation">
        <path stroke-linecap="round" stroke-linejoin="round" d="M12 9v3.75m0-10.036A11.959 11.959 0 013.598 6 11.99 11.99 0 003 9.75c0 5.592 3.824 10.29 9 11.622 5.176-1.332 9-6.03 9-11.622 0-1.31-.21-2.57-.598-3.75h-.152c-3.196 0-6.1-1.249-8.25-3.286zm0 13.036h.008v.008H12v-.008z" />
    </symbol>
    <symbol fill="none" viewBox="0 0 24 24" stroke="currentColor" id="sparkles">
        <path stroke-linecap="round" stroke-linejoin="round" d="M9.813 15.904 9 18.75l-.813-2.846a4.5 4.5 0 0 0-3.09-3.09L2.25 12l2.846-.813a4.5 4.5 0 0 0 3.09-3.09L9 5.25l.813 2.846a4.5 4.5 0 0 0 3.09 3.09L15.75 12l-2.846.813a4.5 4.5 0 0 0-3.09 3.09ZM18.259 8.715 18 9.75l-.259-1.035a3.375 3.375 0 0 0-2.455-2.456L14.25 6l1.036-.259a3.375 3.375 0 0 0 2.455-2.456L18 2.25l.259 1.035a3.375 3.375 0 0 0 2.456 2.456L21.75 6l-1.035.259a3.375 3.375 0 0 0-2.456 2.456ZM16.894 20.567 16.5 21.75l-.394-1.183a2.25 2.25 0 0 0-1.423-1.423L13.5 18.75l1.183-.394a2.25 2.25 0 0 0 1.423-1.423l.394-1.183.394 1.183a2.25 2.25 0 0 0 1.423 1.423l1.183.394-1.183.394a2.25 2.25 0 0 0-1.423 1.423Z" />
    </symbol>
    <symbol fill="none" viewBox="0 0 24 24" stroke="currentColor" id="swatch">
        <path stroke-linecap="round" stroke-linejoin="round" d="M4.098 19.902a3.75 3.75 0 0 0 5.304 0l6.401-6.402M6.75 21A3.75 3.75 0 0 1 3 17.25V4.125C3 3.504 3.504 3 4.125 3h5.25c.621 0 1.125.504 1.125 1.125v4.072M6.75 21a3.75 3.75 0 0 0 3.75-3.75V8.197M6.75 21h13.125c.621 0 1.125-.504 1.125-1.125v-5.25c0-.621-.504-1.125-1.125-1.125h-4.072M10.5 8.197l2.88-2.88c.438-.439 1.15-.439 1.59 0l3.712 3.713c.44.44.44 1.152 0 1.59l-2.879 2.88M6.75 17.25h.008v.008H6.75v-.008Z" />
    </symbol>
    <symbol fill="none" viewBox="0 0 24 24" stroke="currentColor" id="trash">
        <path stroke-linecap="round" stroke-linejoin="round" d="M14.74 9l-.346 9m-4.788 0L9.26 9m9.968-3.21c.342.052.682.107 1.022.166m-1.022-.165L18.16 19.673a2.25 2.25 0 01-2.244 2.077H8.084a2.25 2.25 0 01-2.244-2.077L4.772 5.79m14.456 0a48.108 48.108 0 00-3.478-.397m-12 .562c.34-.059.68-.114 1.022-.165m0 0a48.11 48.11 0 013.478-.397m7.5 0v-.916c0-1.18-.91-2.164-2.09-2.201a51.964 51.964 0 00-3.32 0c-1.18.037-2.09 1.022-2.09 2.201v.916m7.5 0a48.667 48.667 0 00-7.5 0" />
    </symbol>
    <symbol fill="none" viewBox="0 0 24 24" stroke="currentColor" id="user">
        <path stroke-linecap="round" stroke-linejoin="round" d="M15.75 6a3.75 3.75 0 1 1-7.5 0 3.75 3.75 0 0 1 7.5 0ZM4.501 20.118a7.5 7.5 0 0 1 14.998 0A17.933 17.933 0 0 1 12 21.75c-2.676 0-5.216-.584-7.499-1.632Z" />
    </symbol>
    <symbol fill="none" viewBox="0 0 24 24" stroke="currentColor" id="user-circle">
        <path stroke-linecap="round" stroke-linejoin="round" d="M17.982 18.725A7.488 7.488 0 0012 15.75a7.488 7.488 0 00-5.982 2.975m11.963 0a9 9 0 10-11.963 0m11.963 0A8.966 8.966 0 0112 21a8.966 8.966 0 01-5.982-2.275M15 9.75a3 3 0 11-6 0 3 3 0 016 0z" />
    </symbol>
    <symbol fill="none" viewBox="0 0 24 24" stroke="currentColor" id="user-group">
        <path stroke-linecap="round" stroke-linejoin="round" d="M18 18.72a9.094 9.094 0 0 0 3.741-.479 3 3 0 0 0-4.682-2.72m.94 3.198.001.031c0 .225-.012.447-.037.666A11.944 11.944 0 0 1 12 21c-2.17 0-4.207-.576-5.963-1.584A6.062 6.062 0 0 1 6 18.719m12 0a5.971 5.971 0 0 0-.941-3.197m0 0A5.995 5.995 0 0 0 12 12.75a5.995 5.995 0 0 0-5.058 2.772m0 0a3 3 0 0 0-4.681 2.72 8.986 8.986 0 0 0 3.74.477m.94-3.197a5.971 5.971 0 0 0-.94 3.197M15 6.75a3 3 0 1 1-6 0 3 3 0 0 1 6 0Zm6 3a2.25 2.25 0 1 1-4.5 0 2.25 2.25 0 0 1 4.5 0Zm-13.5 0a2.25 2.25 0 1 1-4.5 0 2.25 2.25 0 0 1 4.5 0Z" />
    </symbol>
    <symbol fill="none" viewBox="0 0 24 24" stroke="currentColor" id="user-minus">
        <path stroke-linecap="round" stroke-linejoin="round" d="M22 10.5h-6m-2.25-4.125a3.375 3.375 0 1 1-6.75 0 3.375 3.375 0 0 1 6.75 0ZM4 19.235v-.11a6.375 6.375 0 0 1 12.75 0v.109A12.318 12.318 0 0 1 10.374 21c-2.331 0-4.512-.645-6.374-1.766Z" />
    </symbol>
    <symbol fill="none" viewBox="0 0 24 24" stroke="currentColor" id="plus">
        <path stroke-linecap="round" stroke-linejoin="round" d="M12 4.5v15m7.5-7.5h-15" />
    </symbol>
    <symbol fill="none" viewBox="0 0 24 24" stroke="currentColor" id="bars-4">
        <path stroke-linecap="round" stroke-linejoin="round" d="M3.75 5.25h16.5m-16.5 4.5h16.5m-16.5 4.5h16.5m-16.5 4.5h16.5" />
    </symbol>
    <symbol fill="none" viewBox="0 0 24 24" stroke="currentColor" id="x-mark">
        <path stroke-linecap="round" stroke-linejoin="round" d="M6 18 18 6M6 6l12 12" />
    </symbol>
    <symbol fill="none" viewBox="0 0 24 24" stroke="currentColor" id="cloud-arrow-up">
        <path stroke-linecap="round" stroke-linejoin="round" d="M12 16.5V9.75m0 0 3 3m-3-3-3 3M6.75 19.5a4.5 4.5 0 0 1-1.41-8.775 5.25 5.25 0 0 1 10.233-2.33 3 3 0 0 1 3.758 3.848A3.752 3.752 0 0 1 18 19.5H6.75Z" />
    </symbol>
    <symbol fill="none" viewBox="0 0 24 24" stroke="currentColor" id="cloud-arrow-down">
        <path stroke-linecap="round" stroke-linejoin="round" d="M12 9.75v6.75m0 0-3-3m3 3 3-3m-8.25 6a4.5 4.5 0 0 1-1.41-8.775 5.25 5.25 0 0 1 10.233-2.33 3 3 0 0 1 3.758 3.848A3.752 3.752 0 0 1 18 19.5H6.75Z" />
    </symbol>
    <symbol fill="none" viewBox="0 0 24 24" stroke="currentColor" id="trophy">
        <path stroke-linecap="round" stroke-linejoin="round" d="M16.5 18.75h-9m9 0a3 3 0 0 1 3 3h-15a3 3 0 0 1 3-3m9 0v-3.375c0-.621-.503-1.125-1.125-1.125h-.871M7.5 18.75v-3.375c0-.621.504-1.125 1.125-1.125h.872m5.007 0H9.497m5.007 0a7.454 7.454 0 0 1-.982-3.172M9.497 14.25a7.454 7.454 0 0 0 .981-3.172M5.25 4.236c-.982.143-1.954.317-2.916.52A6.003 6.003 0 0 0 7.73 9.728M5.25 4.236V4.5c0 2.108.966 3.99 2.48 5.228M5.25 4.236V2.721C7.456 2.41 9.71 2.25 12 2.25c2.291 0 4.545.16 6.75.47v1.516M7.73 9.728a6.726 6.726 0 0 0 2.748 1.35m8.272-6.842V4.5c0 2.108-.966 3.99-2.48 5.228m2.48-5.492a46.32 46.32 0 0 1 2.916.52 6.003 6.003 0 0 1-5.395 4.972m0 0a6.726 6.726 0 0 1-2.749 1.35m0 0a6.772 6.772 0 0 1-3.044 0" />
    </symbol>
    <symbol fill="none" viewBox="0 0 24 24" stroke="currentColor" id="magnifying-glass">
        <path stroke-linecap="round" stroke-linejoin="round" d="m21 21-5.197-5.197m0 0A7.5 7.5 0 1 0 5.196 5.196a7.5 7.5 0 0 0 10.607 10.607Z" />
    </symbol>
    <symbol fill="none" viewBox="0 0 24 24" stroke="currentColor" id="arrow-path">
        <path stroke-linecap="round" stroke-linejoin="round" d="M16.023 9.348h4.992v-.001M2.985 19.644v-4.992m0 0h4.992m-4.993 0 3.181 3.183a8.25 8.25 0 0 0 13.803-3.7M4.031 9.865a8.25 8.25 0 0 1 13.803-3.7l3.181 3.182m0-4.991v4.99" />
    </symbol>
    <symbol fill="none" viewBox="0 0 24 24" stroke="currentColor" id="arrow-path-rounded-square">
        <path stroke-linecap="round" stroke-linejoin="round" d="M19.5 12c0-1.232-.046-2.453-.138-3.662a4.006 4.006 0 0 0-3.7-3.7 48.678 48.678 0 0 0-7.324 0 4.006 4.006 0 0 0-3.7 3.7c-.017.22-.032.441-.046.662M19.5 12l3-3m-3 3-3-3m-12 3c0 1.232.046 2.453.138 3.662a4.006 4.006 0 0 0 3.7 3.7 48.656 48.656 0 0 0 7.324 0 4.006 4.006 0 0 0 3.7-3.7c.017-.22.032-.441.046-.662M4.5 12l3 3m-3-3-3 3" />
    </symbol>
    <symbol fill="none" viewBox="0 0 24 24" stroke="currentColor" id="tag">
        <path stroke-linecap="round" stroke-linejoin="round" d="M9.568 3H5.25A2.25 2.25 0 0 0 3 5.25v4.318c0 .597.237 1.17.659 1.591l9.581 9.581c.699.699 1.78.872 2.607.33a18.095 18.095 0 0 0 5.223-5.223c.542-.827.369-1.908-.33-2.607L11.16 3.66A2.25 2.25 0 0 0 9.568 3Z" />
        <path stroke-linecap="round" stroke-linejoin="round" d="M6 6h.008v.008H6V6Z" />
    </symbol>
    <symbol fill="none" viewBox="0 0 24 24" stroke="currentColor" id="arrow-down-on-square">
        <path stroke-linecap="round" stroke-linejoin="round" d="M9 8.25H7.5a2.25 2.25 0 0 0-2.25 2.25v9a2.25 2.25 0 0 0 2.25 2.25h9a2.25 2.25 0 0 0 2.25-2.25v-9a2.25 2.25 0 0 0-2.25-2.25H15M9 12l3 3m0 0 3-3m-3 3V2.25" />
    </symbol>
    <symbol fill="none" viewBox="0 0 24 24" stroke="currentColor" id="globe-alt">
        <path stroke-linecap="round" stroke-linejoin="round" d="M12 21a9.004 9.004 0 0 0 8.716-6.747M12 21a9.004 9.004 0 0 1-8.716-6.747M12 21c2.485 0 4.5-4.03 4.5-9S14.485 3 12 3m0 18c-2.485 0-4.5-4.03-4.5-9S9.515 3 12 3m0 0a8.997 8.997 0 0 1 7.843 4.582M12 3a8.997 8.997 0 0 0-7.843 4.582m15.686 0A11.953 11.953 0 0 1 12 10.5c-2.998 0-5.74-1.1-7.843-2.918m15.686 0A8.959 8.959 0 0 1 21 12c0 .778-.099 1.533-.284 2.253m0 0A17.919 17.919 0 0 1 12 16.5c-3.162 0-6.133-.815-8.716-2.247m0 0A9.015 9.015 0 0 1 3 12c0-1.605.42-3.113 1.157-4.418" />
    </symbol>
    <symbol fill="none" viewBox="0 0 24 24" stroke="currentColor" id="rectangle-group">
        <path stroke-linecap="round" stroke-linejoin="round" d="M2.25 7.125C2.25 6.504 2.754 6 3.375 6h6c.621 0 1.125.504 1.125 1.125v3.75c0 .621-.504 1.125-1.125 1.125h-6a1.125 1.125 0 0 1-1.125-1.125v-3.75ZM14.25 8.625c0-.621.504-1.125 1.125-1.125h5.25c.621 0 1.125.504 1.125 1.125v8.25c0 .621-.504 1.125-1.125 1.125h-5.25a1.125 1.125 0 0 1-1.125-1.125v-8.25ZM3.75 16.125c0-.621.504-1.125 1.125-1.125h5.25c.621 0 1.125.504 1.125 1.125v2.25c0 .621-.504 1.125-1.125 1.125h-5.25a1.125 1.125 0 0 1-1.125-1.125v-2.25Z" />
    </symbol>
    <symbol fill="none" viewBox="0 0 24 24" stroke="currentColor" id="shopping-bag">
        <path stroke-linecap="round" stroke-linejoin="round" d="M15.75 10.5V6a3.75 3.75 0 1 0-7.5 0v4.5m11.356-1.993 1.263 12c.07.665-.45 1.243-1.119 1.243H4.25a1.125 1.125 0 0 1-1.12-1.243l1.264-12A1.125 1.125 0 0 1 5.513 7.5h12.974c.576 0 1.059.435 1.119 1.007ZM8.625 10.5a.375.375 0 1 1-.75 0 .375.375 0 0 1 .75 0Zm7.5 0a.375.375 0 1 1-.75 0 .375.375 0 0 1 .75 0Z" />
    </symbol>
    <symbol fill="none" viewBox="0 0 24 24" stroke="currentColor" id="ticket">
        <path stroke-linecap="round" stroke-linejoin="round" d="M16.5 6v.75m0 3v.75m0 3v.75m0 3V18m-9-5.25h5.25M7.5 15h3M3.375 5.25c-.621 0-1.125.504-1.125 1.125v3.026a2.999 2.999 0 0 1 0 5.198v3.026c0 .621.504 1.125 1.125 1.125h17.25c.621 0 1.125-.504 1.125-1.125v-3.026a2.999 2.999 0 0 1 0-5.198V6.375c0-.621-.504-1.125-1.125-1.125H3.375Z" />
    </symbol>
    <symbol fill="none" viewBox="0 0 24 24" stroke="currentColor" id="arrow-long-left">
        <path stroke-linecap="round" stroke-linejoin="round" d="M6.75 15.75 3 12m0 0 3.75-3.75M3 12h18" />
    </symbol>
    <symbol fill="none" viewBox="0 0 24 24" stroke="currentColor" id="arrow-long-right">
        <path stroke-linecap="round" stroke-linejoin="round" d="M17.25 8.25 21 12m0 0-3.75 3.75M21 12H3" />
    </symbol>
    <symbol fill="none" viewBox="0 0 24 24" stroke="currentColor" id="arrow-right-start-on-rectangle">
        <path stroke-linecap="round" stroke-linejoin="round" d="M15.75 9V5.25A2.25 2.25 0 0 0 13.5 3h-6a2.25 2.25 0 0 0-2.25 2.25v13.5A2.25 2.25 0 0 0 7.5 21h6a2.25 2.25 0 0 0 2.25-2.25V15m3 0 3-3m0 0-3-3m3 3H9" />
    </symbol>
    <symbol fill="none" viewBox="0 0 24 24" stroke="currentColor" id="pencil">
        <path stroke-linecap="round" stroke-linejoin="round" d="m16.862 4.487 1.687-1.688a1.875 1.875 0 1 1 2.652 2.652L6.832 19.82a4.5 4.5 0 0 1-1.897 1.13l-2.685.8.8-2.685a4.5 4.5 0 0 1 1.13-1.897L16.863 4.487Zm0 0L19.5 7.125" />
    </symbol>
    <symbol fill="none" viewBox="0 0 24 24" stroke="currentColor" id="pencil-square">
        <path stroke-linecap="round" stroke-linejoin="round" d="m16.862 4.487 1.687-1.688a1.875 1.875 0 1 1 2.652 2.652L10.582 16.07a4.5 4.5 0 0 1-1.897 1.13L6 18l.8-2.685a4.5 4.5 0 0 1 1.13-1.897l8.932-8.931Zm0 0L19.5 7.125M18 14v4.75A2.25 2.25 0 0 1 15.75 21H5.25A2.25 2.25 0 0 1 3 18.75V8.25A2.25 2.25 0 0 1 5.25 6H10" />
    </symbol>
    <symbol fill="none" viewBox="0 0 24 24" stroke="currentColor" id="square-3-stack-3d">
        <path stroke-linecap="round" stroke-linejoin="round" d="M6.429 9.75 2.25 12l4.179 2.25m0-4.5 5.571 3 5.571-3m-11.142 0L2.25 7.5 12 2.25l9.75 5.25-4.179 2.25m0 0L21.75 12l-4.179 2.25m0 0 4.179 2.25L12 21.75 2.25 16.5l4.179-2.25m11.142 0-5.571 3-5.571-3" />
    </symbol>
    <symbol fill="none" viewBox="0 0 24 24" stroke="currentColor" id="check-badge">
        <path stroke-linecap="round" stroke-linejoin="round" d="M9 12.75 11.25 15 15 9.75M21 12c0 1.268-.63 2.39-1.593 3.068a3.745 3.745 0 0 1-1.043 3.296 3.745 3.745 0 0 1-3.296 1.043A3.745 3.745 0 0 1 12 21c-1.268 0-2.39-.63-3.068-1.593a3.746 3.746 0 0 1-3.296-1.043 3.745 3.745 0 0 1-1.043-3.296A3.745 3.745 0 0 1 3 12c0-1.268.63-2.39 1.593-3.068a3.745 3.745 0 0 1 1.043-3.296 3.746 3.746 0 0 1 3.296-1.043A3.746 3.746 0 0 1 12 3c1.268 0 2.39.63 3.068 1.593a3.746 3.746 0 0 1 3.296 1.043 3.746 3.746 0 0 1 1.043 3.296A3.745 3.745 0 0 1 21 12Z" />
    </symbol>
</svg>
