<svg xmlns="http://www.w3.org/2000/svg">
    <symbol fill="none" viewBox="0 0 24 24" stroke-width="1.5" stroke="currentColor" id="exclamation-circle">
        <path stroke-linecap="round" stroke-linejoin="round" d="M12 9v3.75m9-.75a9 9 0 11-18 0 9 9 0 0118 0zm-9 3.75h.008v.008H12v-.008z" />
    </symbol>
    <symbol fill="none" viewBox="0 0 24 24" stroke-width="1.5" stroke="currentColor" id="exclamation-triangle">
        <path stroke-linecap="round" stroke-linejoin="round" d="M12 9v3.75m-9.303 3.376c-.866 1.5.217 3.374 1.948 3.374h14.71c1.73 0 2.813-1.874 1.948-3.374L13.949 3.378c-.866-1.5-3.032-1.5-3.898 0L2.697 16.126zM12 15.75h.007v.008H12v-.008z" />
    </symbol>
    <symbol fill="none" viewBox="0 0 24 24" stroke-width="1.5" stroke="currentColor" id="shield-exclamation">
        <path stroke-linecap="round" stroke-linejoin="round" d="M12 9v3.75m0-10.036A11.959 11.959 0 013.598 6 11.99 11.99 0 003 9.75c0 5.592 3.824 10.29 9 11.622 5.176-1.332 9-6.03 9-11.622 0-1.31-.21-2.57-.598-3.75h-.152c-3.196 0-6.1-1.249-8.25-3.286zm0 13.036h.008v.008H12v-.008z" />
    </symbol>
    <symbol fill="none" viewBox="0 0 24 24" stroke-width="1.5" stroke="currentColor" id="arrow-left-on-rectangle">
        <path stroke-linecap="round" stroke-linejoin="round" d="M15.75 9V5.25A2.25 2.25 0 0013.5 3h-6a2.25 2.25 0 00-2.25 2.25v13.5A2.25 2.25 0 007.5 21h6a2.25 2.25 0 002.25-2.25V15M12 9l-3 3m0 0l3 3m-3-3h12.75" />
    </symbol>
</svg>
